<?xml version="1.0" standalone="no"?>
<!DOCTYPE svg PUBLIC "-//W3C//DTD SVG 20010904//EN"
 "http://www.w3.org/TR/2001/REC-SVG-20010904/DTD/svg10.dtd">
<svg version="1.0" xmlns="http://www.w3.org/2000/svg"
 width="1000.000000pt" height="1000.000000pt" viewBox="0 0 1000.000000 1000.000000"
 preserveAspectRatio="xMidYMid meet">
<metadata>
Created by potrace 1.11, written by Peter Selinger 2001-2013
</metadata>
<g transform="translate(0.000000,1000.000000) scale(0.100000,-0.100000)"
fill="#000000" stroke="none">
<path d="M4923 8067 c-668 -1001 -936 -1855 -797 -2537 39 -190 87 -297 425
-951 l191 -369 250 2 251 3 94 180 c248 473 442 867 471 955 65 200 76 280 77
550 0 268 -11 360 -75 612 -114 448 -360 963 -727 1521 -46 70 -87 127 -91
127 -4 0 -35 -42 -69 -93z"/>
<path d="M680 5507 c0 -12 412 -802 439 -840 141 -205 339 -349 586 -424 l90
-28 1303 -3 c716 -1 1302 -1 1302 0 0 17 -422 817 -454 863 -24 33 -86 101
-138 150 -135 128 -267 201 -466 258 l-77 22 -1292 3 c-711 1 -1293 1 -1293
-1z"/>
<path d="M6707 5494 c-265 -48 -501 -193 -658 -406 -29 -39 -142 -245 -259
-471 l-207 -402 1256 -3 c912 -2 1276 0 1330 9 271 41 535 209 689 436 36 52
442 831 442 846 0 4 -566 7 -1257 6 -1039 -1 -1272 -3 -1336 -15z"/>
<path d="M3500 3910 c-163 -21 -321 -112 -414 -239 -34 -46 -276 -504 -276
-522 0 -5 192 -9 428 -9 324 1 446 4 507 15 145 26 294 118 378 233 31 42 277
509 277 525 0 9 -830 6 -900 -3z"/>
<path d="M4702 3908 c-26 -33 -156 -309 -182 -386 -52 -158 -60 -302 -25 -473
36 -171 162 -510 295 -789 177 -372 195 -409 201 -410 7 0 199 392 267 544
104 236 213 553 238 698 22 126 15 273 -20 393 -15 50 -65 168 -111 263 l-85
172 -284 0 c-215 0 -286 -3 -294 -12z"/>
<path d="M5589 3915 c-7 -6 162 -345 232 -465 74 -128 198 -229 343 -277 l81
-27 463 -4 c361 -3 462 -1 462 9 0 17 -226 454 -261 505 -43 64 -139 146 -215
186 -134 70 -138 71 -644 75 -250 3 -458 2 -461 -2z"/>
</g>
</svg>
